<?xml version="1.0" encoding="UTF-8"?>
<svg width="106px" height="17px" viewBox="0 0 106 17" version="1.1" xmlns="http://www.w3.org/2000/svg" xmlns:xlink="http://www.w3.org/1999/xlink">
    <title>img_login</title>
    <defs>
        <polygon id="path-1" points="0 0 1.95874309 0 1.95874309 16.9630237 0 16.9630237"></polygon>
        <polygon id="path-3" points="0 0 10.6172115 0 10.6172115 12.9605387 0 12.9605387"></polygon>
    </defs>
    <g id="Page-1" stroke="none" stroke-width="1" fill="none" fill-rule="evenodd">
        <g id="mail" transform="translate(-116.000000, -46.000000)">
            <g id="Group" transform="translate(116.000000, 40.000000)">
                <g id="img_login" transform="translate(0.000000, 6.000000)">
                    <path d="M104.074456,10.4577386 C104.074456,11.0794529 103.957259,11.6718176 103.720866,12.2166444 C103.483473,12.7662249 103.156683,13.2548328 102.751494,13.6690334 C102.349306,14.0813739 101.86972,14.4143465 101.322736,14.6526565 C100.225568,15.13031 98.9216057,15.1234894 97.844637,14.65369 C97.3032527,14.4143465 96.8228667,14.0813739 96.4214783,13.6690334 C96.0134902,13.2509058 95.6846997,12.7643647 95.4513065,12.2166444 C95.2159133,11.6738845 95.0957168,11.0802796 95.0957168,10.4577386 C95.0957168,9.83561094 95.2159133,9.23828571 95.4513065,8.68457143 C95.6884996,8.1331307 96.0134902,7.64245593 96.4186784,7.2301155 C96.8228667,6.81798176 97.3032527,6.48707599 97.8456369,6.24380547 C98.3860212,6.00342857 98.9722042,5.88168997 99.5879863,5.88168997 C100.192169,5.88168997 100.775552,6.00528875 101.319936,6.24463222 C101.86592,6.48707599 102.345506,6.81798176 102.754294,7.2301155 C103.156683,7.64059574 103.483473,8.13209726 103.720866,8.68457143 C103.957259,9.2401459 104.074456,9.83561094 104.074456,10.4577386 M105.494015,7.9006079 C105.160424,7.10651672 104.696038,6.40874164 104.117255,5.81575684 C103.537872,5.22504559 102.848692,4.75586626 102.069114,4.41648632 C100.50676,3.73627964 98.6148146,3.7352462 97.0602598,4.41648632 C96.2852823,4.75586626 95.6009022,5.22504559 95.0243189,5.81865046 C94.4465357,6.41060182 93.9863491,7.11044377 93.6545587,7.9006079 C93.3209684,8.69841945 93.1493734,9.55989058 93.1493734,10.4577386 C93.1493734,11.3551733 93.3209684,12.2166444 93.6545587,13.0094954 C93.9863491,13.7957325 94.4495356,14.494541 95.0251189,15.0864924 C95.6009022,15.6780304 96.2862822,16.1494833 97.0602598,16.4888632 C97.8378372,16.8286565 98.6824126,17 99.563187,17 C100.442961,17 101.289337,16.8286565 102.069114,16.4888632 C102.848692,16.1494833 103.536872,15.6780304 104.117255,15.0864924 C104.696038,14.500535 105.160424,13.8004863 105.494015,13.0094954 C105.829405,12.2166444 106,11.3591003 106,10.4577386 C106,9.55885714 105.829405,8.69655927 105.494015,7.9006079" id="Fill-1" fill="#04A6E1"></path>
                    <path d="M91.6690964,13.6611587 C91.4995013,13.5059368 91.2763078,13.4139611 91.0315149,13.4139611 C90.8151212,13.4139611 90.6197269,13.4848547 90.4557317,13.6094869 C90.408133,13.6473106 90.3641343,13.688648 90.3233355,13.7341191 C90.1707399,13.8684657 90.0095446,13.9970249 89.8371496,14.1166967 C89.5959566,14.2857666 89.3385641,14.4349945 89.0697719,14.565414 C88.8019797,14.6929398 88.5217879,14.7940097 88.2377961,14.868417 C87.3666214,15.0854383 86.4314486,14.9628729 85.6794704,14.6170857 C85.1684853,14.3827027 84.7196983,14.0536571 84.3451092,13.6423502 C83.9713201,13.2277362 83.6759287,12.7416085 83.4633348,12.1909945 C83.2545409,11.6472012 83.146944,11.0488426 83.146944,10.420721 C83.146944,9.80210699 83.2545409,9.20684863 83.4633348,8.6570614 C83.6759287,8.10541398 83.9713201,7.61887295 84.3431093,7.20859939 C84.7166984,6.79915258 85.1666853,6.47320729 85.6794704,6.23779088 C86.6888411,5.77377872 88.0108027,5.76199757 89.033573,6.22497629 C89.2109678,6.30579088 89.3843628,6.40086687 89.5521579,6.50069666 C89.7179531,6.60466018 89.8781484,6.71709787 90.030544,6.84069666 C90.1193414,6.91489726 90.2107388,6.98827112 90.2937364,7.07011915 C90.3347352,7.11248997 90.375734,7.1563076 90.4205327,7.19185775 C90.5901278,7.32723769 90.7941218,7.40763891 91.0219152,7.40763891 C91.0895132,7.40763891 91.1573113,7.40164498 91.2201095,7.38676353 C91.6690964,7.29086079 92.0054866,6.88141398 92.0054866,6.38908571 C92.0054866,6.32893982 91.9998868,6.27024073 91.9902871,6.20926809 C91.9606879,6.04577872 91.8920899,5.89448389 91.7958927,5.76592462 C91.7958927,5.76406444 91.7938928,5.7599307 91.7938928,5.7599307 C91.7900929,5.75600365 91.7882929,5.75311003 91.786293,5.7520766 C91.7434942,5.69689119 91.6910958,5.64335927 91.6356974,5.5970614 C91.578499,5.54084255 91.5147009,5.48917082 91.4509027,5.4389459 C91.3937044,5.38706748 91.3317062,5.33601581 91.2677081,5.28372401 C91.2087098,5.23308571 91.1457116,5.18678784 91.0839134,5.1384231 C91.0209152,5.08964498 90.9581171,5.04438055 90.8951189,4.99808267 C90.8283208,4.95426505 90.7655227,4.91189422 90.7025245,4.86766322 C90.6369264,4.82570578 90.5701283,4.78230152 90.5025303,4.743031 C90.4385322,4.70396717 90.3709341,4.66469666 90.3023361,4.62728632 C90.2327381,4.58822249 90.1631402,4.55184559 90.0953421,4.51650213 C90.0239442,4.48384559 89.9533463,4.4489155 89.8809484,4.41646565 C89.8123504,4.38194894 89.7407524,4.35032584 89.6683545,4.32138967 C89.652155,4.31353556 89.6349555,4.30650821 89.616956,4.29762067 C88.1547985,3.6978152 86.3084522,3.73026505 84.867294,4.37988207 C84.1163159,4.72174225 83.4537351,5.19546869 82.9029511,5.78473313 C82.3499672,6.37627112 81.9125799,7.08086687 81.6037889,7.87495805 C81.2977978,8.66698237 81.1396024,9.52638663 81.1396024,10.420721 C81.1396024,11.3245629 81.2977978,12.1850006 81.6037889,12.9780584 C81.9135799,13.7645021 82.3499672,14.4678578 82.9009512,15.061876 C83.4537351,15.6604413 84.1163159,16.1356146 84.867294,16.4739611 C85.6212721,16.8147878 86.4562479,16.9892316 87.3494219,16.9892316 C88.208197,16.9892316 89.0117736,16.8218152 89.7313527,16.4917362 C90.4185327,16.177572 91.0515144,15.7449763 91.6262977,15.2042833 C91.681496,15.160879 91.7338945,15.112721 91.7806932,15.0540219 C91.9188891,14.8820584 92.0026867,14.6584231 92.0026867,14.4143258 C92.0026867,14.2522833 91.9646878,14.0980948 91.8968898,13.9625082 C91.8406914,13.8467635 91.7644936,13.7448669 91.6690964,13.6611587" id="Fill-3" fill="#186A9E"></path>
                    <g id="Group-7" transform="translate(76.944704, 0.000000)">
                        <mask id="mask-2" fill="white">
                            <use xlink:href="#path-1"></use>
                        </mask>
                        <g id="Clip-6"></g>
                        <path d="M1.95874309,15.9430237 L1.95874309,2.1423307 C1.95874309,1.89327295 1.95214328,1.64979574 1.93874367,1.40611185 C1.93214386,1.25233678 1.92434409,1.10207538 1.91494436,0.95594772 C1.91194445,0.928251672 1.90914453,0.897868693 1.90734458,0.870172644 C1.85394613,0.404300304 1.48495685,0.037431003 1.02937009,0.00291428571 C1.00557078,0.00291428571 0.981771473,-0.000186018237 0.955972223,-0.000186018237 C0.931172943,-0.000186018237 0.907373635,0.00291428571 0.882574355,0.00291428571 C0.404188256,0.0392911854 0.0257992504,0.441710638 0.000999970944,0.941066261 C0.000999970944,0.956981155 0,0.973722796 0,0.989431003 C0,1.00658602 0.000999970944,1.02229422 0.000999970944,1.03717568 L0.000999970944,15.9283489 L0.000999970944,15.9508778 L0.000999970944,15.9746468 C0.0133996107,16.5163733 0.436587314,16.9541362 0.963572002,16.9619903 C0.969371833,16.9630237 0.973171723,16.9630237 0.978971554,16.9630237 C0.985571363,16.9630237 0.990371223,16.9630237 0.994171113,16.9619903 C1.52495569,16.9541362 1.95394323,16.5085191 1.95874309,15.9607988 L1.95874309,15.9508778 L1.95874309,15.9430237 Z" id="Fill-5" fill="#186A9E" mask="url(#mask-2)"></path>
                    </g>
                    <path d="M60.1562521,14.9609714 C60.1466523,14.9609714 60.1372526,14.9589046 60.1266529,14.9589046 C59.9432583,14.9589046 59.7630635,14.9541508 59.5824687,14.9314152 C59.5276703,14.9245945 59.4780718,14.915707 59.4236733,14.9068195 C59.3698749,14.8979319 59.3146765,14.8880109 59.2606781,14.8772632 C59.1424815,14.8555611 59.0476843,14.8028559 58.9728864,14.7280353 C58.8984886,14.6515611 58.8370904,14.5161812 58.7950916,14.3423574 C58.746093,14.1286432 58.7212938,13.8153058 58.7212938,13.4168134 L58.7212938,6.11311733 L60.2692488,6.11311733 L60.2910481,6.11311733 L60.3110476,6.11311733 C60.8324324,6.10030274 61.2490203,5.66357325 61.2490203,5.12474043 C61.2490203,4.5842541 60.8324324,4.14649119 60.3130475,4.1336766 C60.3054477,4.1336766 60.2988479,4.13264316 60.2910481,4.13264316 C60.2816484,4.13264316 60.2748486,4.1336766 60.2662489,4.1336766 L58.7212938,4.1336766 L58.7212938,1.09145167 L58.7212938,1.05879514 L58.7212938,1.02531185 C58.7068942,0.546624924 58.3809036,0.149165957 57.9463163,0.0392085106 C57.8701185,0.0195732523 57.7895208,0.00882553192 57.7051233,0.00882553192 C57.5045291,0.00882553192 57.3177345,0.0712449848 57.1599391,0.175828571 C56.8807472,0.357919757 56.6947526,0.677251064 56.6901528,1.0451538 C56.6901528,1.05094103 56.6891528,1.05383465 56.6891528,1.05879514 C56.6891528,1.06478906 56.6901528,1.06974954 56.6901528,1.0736766 L56.6901528,4.1336766 L55.5301865,4.1336766 L55.5209867,4.1336766 L55.512387,4.1336766 C55.0344009,4.13760365 54.6418123,4.50550638 54.5730143,4.98191976 C54.5654145,5.028631 54.5616146,5.07596231 54.5616146,5.12474043 C54.5616146,5.17393191 54.5654145,5.22022979 54.5730143,5.26797447 C54.6398124,5.73343343 55.0192013,6.09534225 55.4857878,6.11311733 C55.4971874,6.11311733 55.5085871,6.11415076 55.5209867,6.11415076 C55.5339864,6.11415076 55.546386,6.11311733 55.5567857,6.11311733 L56.6901528,6.11311733 L56.6901528,13.7429653 C56.6901528,14.4591356 56.7715504,15.0136766 56.9341457,15.4386249 C57.1037408,15.8794881 57.3391339,16.2217617 57.6441251,16.4532511 C57.9397165,16.6764729 58.2947062,16.8228073 58.6964945,16.8841933 C59.0600839,16.9364851 59.4580724,16.9664547 59.8750602,16.9664547 L60.1000537,16.9664547 C60.1086534,16.9664547 60.1180532,16.9674881 60.1266529,16.9674881 C60.1372526,16.9674881 60.1438524,16.9664547 60.1552521,16.9664547 C60.675637,16.9503331 61.0980247,16.5084365 61.0980247,15.9646432 C61.0980247,15.4200231 60.6770369,14.9772997 60.1562521,14.9609714" id="Fill-8" fill="#04A7E2"></path>
                    <path d="M74.132146,7.7710152 C73.8157552,6.99428571 73.3781679,6.31159878 72.8339837,5.74134954 C72.2887995,5.17089362 71.6482181,4.71680243 70.9238392,4.39271733 C69.4406823,3.73028571 67.6469344,3.74806079 66.1771771,4.41937994 C65.4285989,4.75979331 64.7648182,5.22917933 64.2062344,5.82051064 C63.6462507,6.41163526 63.1986637,7.11437082 62.8750731,7.90350152 C62.5480826,8.69841945 62.3828874,9.55885714 62.3828874,10.4577386 C62.3828874,11.3562067 62.5518825,12.2166444 62.8884727,13.0094954 C63.2196631,13.7994529 63.6848495,14.4966079 64.2642327,15.0815319 C64.8444158,15.6681094 65.5347958,16.1366687 66.3115732,16.4760486 C67.0931505,16.8148085 67.9395259,16.9892523 68.8183004,16.9892523 C69.5292797,16.9892523 70.1966603,16.8821884 70.8074426,16.6724012 C71.410825,16.4671611 71.9848084,16.1775927 72.514593,15.8115502 C72.6365894,15.7224681 72.7595859,15.6213982 72.8815823,15.5099939 C72.8967819,15.496766 72.9073816,15.4839514 72.9197812,15.4732036 C72.9225811,15.4692766 72.9245811,15.4682432 72.927381,15.4653495 C73.099976,15.2855319 73.2065729,15.0401945 73.2065729,14.7663343 C73.2065729,14.2196474 72.7767854,13.776924 72.2478007,13.776924 C72.0514064,13.776924 71.8684117,13.8399635 71.7150162,13.9439271 L71.6358185,14.0059331 L71.4672234,14.1355258 C71.0906343,14.4222006 70.6712465,14.6408754 70.2214596,14.787003 C69.2280885,15.1096413 68.0967213,15.0815319 67.1483489,14.6929605 C66.6317639,14.4796596 66.1685774,14.1871976 65.7721889,13.821155 C65.3782003,13.4582128 65.0526098,13.018383 64.805217,12.5179939 C64.6090227,12.120535 64.4730266,11.6945532 64.4058286,11.247696 L64.4078285,11.247696 C64.35823,10.968462 64.3306308,10.6807538 64.3306308,10.3882918 C64.3306308,10.0456049 64.3686297,9.71201216 64.4374277,9.38896049 L64.4334278,9.38896049 C64.4412276,9.35981763 64.4502273,9.33232827 64.458827,9.30277204 C64.4692267,9.2575076 64.4778265,9.21058967 64.4902261,9.16532523 L64.4902261,9.18206687 C64.5822235,8.85302128 64.7048199,8.53534347 64.8634153,8.23688754 C65.1160079,7.76708815 65.4343987,7.3518541 65.8091878,7.00317325 C66.1837769,6.65800608 66.6117645,6.38311246 67.0845508,6.188 C68.0223235,5.80087538 69.1298913,5.79405471 70.068864,6.19254711 C70.5358505,6.392 70.9600381,6.6687538 71.3270275,7.01392097 C71.6902169,7.35784802 71.9924081,7.7710152 72.2258014,8.23895441 C72.4039962,8.60479027 72.5365923,8.98943465 72.6127901,9.38896049 L65.8339871,9.38896049 C65.356201,9.41458967 64.9744121,9.81990274 64.9744121,10.3202918 C64.9744121,10.8134468 65.3496012,11.2156596 65.8215874,11.247696 L73.4945645,11.247696 C73.544963,11.247696 73.5955616,11.2458359 73.6403603,11.2412888 L73.6527599,11.2412888 C73.7575569,11.2412888 73.855754,11.2255805 73.9501513,11.1931307 C74.3295402,11.0645714 74.6049322,10.7005957 74.6107321,10.2675866 L74.6107321,10.2529119 L74.6107321,10.2283161 C74.6021323,9.35506383 74.4429369,8.52645593 74.132146,7.7710152" id="Fill-10" fill="#186A9E"></path>
                    <path d="M39.8081633,11.8594687 C39.6161689,11.4502286 39.3405769,11.0755052 38.9827873,10.7454261 C38.6371973,10.4198942 38.2106097,10.1311526 37.7218239,9.88498845 C37.2412379,9.64357812 36.6942538,9.43627112 36.0904713,9.2674079 L35.7300818,9.16840486 C35.5032884,9.10681216 35.2620954,9.02599757 35.0057029,8.92492766 C34.76071,8.82799149 34.5367165,8.70625289 34.3381223,8.56405228 C34.1455278,8.43053252 33.9849325,8.26559635 33.8605361,8.07875137 C33.7513393,7.91133495 33.6989408,7.71787599 33.6989408,7.48928024 C33.6989408,7.23505532 33.7427396,7.0139003 33.8385368,6.81196717 C33.934334,6.60858723 34.07013,6.42938967 34.2403251,6.2801617 C34.4195199,6.1299003 34.6325137,6.00919514 34.8775066,5.92838055 C35.5374874,5.70288511 36.410262,5.76592462 37.030244,6.1536693 C37.2694371,6.29793678 37.479631,6.47527416 37.6584258,6.67658723 L37.6574258,6.67658723 L37.8862192,6.9981921 C37.9176182,7.05048389 37.9524172,7.10070881 37.9886162,7.14555988 C38.1730108,7.35886079 38.4376031,7.49424073 38.7377944,7.49424073 C39.2867785,7.49424073 39.7329655,7.03270881 39.7329655,6.46431976 C39.7329655,6.28801581 39.6933666,6.12597325 39.6179688,5.98170578 C39.6161689,5.97881216 39.6141689,5.97674529 39.613169,5.97385167 C39.613169,5.9717848 39.611369,5.96785775 39.6093691,5.96682432 C39.5837698,5.91515258 39.5507708,5.86885471 39.5183717,5.82545046 C39.1099836,5.21324377 38.6105981,4.74489119 38.029015,4.42928024 C36.8700487,3.80177872 35.3010943,3.70670274 34.1225285,4.12193678 C33.6335427,4.29183343 33.211755,4.54192462 32.865965,4.86270274 C32.5203751,5.18368754 32.2453831,5.57225897 32.0551886,6.01911611 C31.8593943,6.46328632 31.7615971,6.96119514 31.7615971,7.50209483 C31.7615971,7.97995502 31.8755938,8.42763891 32.1033872,8.83295198 C32.3191809,9.21945653 32.6051726,9.56979088 32.9573624,9.87403404 C33.2991524,10.17249 33.692141,10.4296085 34.1225285,10.642496 C34.5453162,10.8533167 34.9799036,11.0242468 35.4246907,11.1528061 C35.7472813,11.2325872 36.0798716,11.332417 36.4186618,11.4599429 C36.7442523,11.5787878 37.0434436,11.729876 37.3104359,11.9057666 C37.5630285,12.0760766 37.7728225,12.2757362 37.9304179,12.5051587 C38.0738137,12.7120523 38.1444117,12.9489155 38.1444117,13.2316632 C38.1444117,13.5385933 38.0738137,13.7907514 37.927618,14.0040523 C37.7728225,14.2324413 37.5716283,14.4240401 37.3286354,14.5757483 C37.0798426,14.7328304 36.8032506,14.8525021 36.5098591,14.9283562 C35.9894743,15.0629094 35.5822861,15.1003198 35.0315021,14.9510918 C34.7969089,14.8909459 34.5615158,14.7940097 34.3361223,14.6712377 C34.1101289,14.5457787 33.899935,14.3926237 33.7083406,14.2068122 C33.5487452,14.0567574 33.416749,13.8823137 33.3113521,13.688648 C33.3075522,13.6838942 33.3047523,13.6789337 33.3029523,13.6739733 C33.1337572,13.3562954 32.8043668,13.1401009 32.4283777,13.1401009 C32.2991815,13.1401009 32.1757851,13.1657301 32.0627884,13.2128547 L31.9937904,13.2419976 C31.6582001,13.4090006 31.4276068,13.7626419 31.4276068,14.1743623 C31.4276068,14.3058152 31.4524061,14.4329277 31.4966048,14.5497058 C31.5034046,14.5625204 31.5062045,14.5757483 31.5128043,14.5906298 C31.6448005,14.908721 31.8225953,15.1972559 32.0361891,15.4574748 C32.316381,15.7958213 32.6541712,16.0814626 33.0407599,16.3079915 C33.4195489,16.5281131 33.8357368,16.6961495 34.279324,16.8098274 C34.7217111,16.9177179 35.1886975,16.976417 35.6648837,16.976417 C36.241067,16.976417 36.7994507,16.8951891 37.3248355,16.7379003 C37.85662,16.5758578 38.3322062,16.3385812 38.7387944,16.0227635 C39.1537823,15.7036389 39.4889726,15.3032863 39.7329655,14.8332802 C39.9773584,14.3560401 40.1041547,13.8093532 40.1041547,13.2081009 C40.1041547,12.7308608 40.0045576,12.2757362 39.8081633,11.8594687" id="Fill-12" fill="#186A9E"></path>
                    <path d="M46.7867805,14.9609714 C46.7771808,14.9609714 46.7653812,14.9589046 46.7567814,14.9589046 C46.5731867,14.9589046 46.3949919,14.9541508 46.2105973,14.9314152 C46.1585988,14.9245945 46.1090002,14.915707 46.0548018,14.9068195 C45.9984034,14.8979319 45.943605,14.8880109 45.8908066,14.8772632 C45.7706101,14.8555611 45.6778128,14.8028559 45.6038149,14.7280353 C45.5276171,14.6515611 45.4680189,14.5161812 45.4252201,14.3423574 C45.3760215,14.1286432 45.3512222,13.8153058 45.3512222,13.4168134 L45.3512222,6.11311733 L46.8973773,6.11311733 L46.9211766,6.11311733 L46.9407761,6.11311733 C47.460161,6.10030274 47.8791488,5.66357325 47.8791488,5.12474043 C47.8791488,4.5842541 47.4629609,4.14649119 46.943576,4.1336766 C46.9359762,4.1336766 46.9277764,4.13264316 46.9211766,4.13264316 C46.9107769,4.13264316 46.9049771,4.1336766 46.8963774,4.1336766 L45.3512222,4.1336766 L45.3512222,1.09145167 L45.3512222,1.05879514 L45.3512222,1.02531185 C45.3360227,0.546624924 45.0120321,0.149165957 44.5764448,0.0392085106 C44.500047,0.0195732523 44.4196493,0.00882553192 44.3342518,0.00882553192 C44.1336576,0.00882553192 43.947263,0.0712449848 43.7890676,0.175828571 C43.5106757,0.357919757 43.3258811,0.677251064 43.3210812,1.0451538 C43.3210812,1.05094103 43.3200813,1.05383465 43.3200813,1.05879514 C43.3200813,1.06478906 43.3210812,1.06974954 43.3210812,1.0736766 L43.3210812,4.1336766 L42.1611149,4.1336766 L42.1525152,4.1336766 L42.1439154,4.1336766 C41.6653293,4.13760365 41.2703408,4.50550638 41.2041427,4.98191976 C41.196543,5.028631 41.1935431,5.07596231 41.1935431,5.12474043 C41.1935431,5.17393191 41.196543,5.22022979 41.2041427,5.26797447 C41.2703408,5.73343343 41.6501298,6.09534225 42.1149163,6.11311733 C42.1281159,6.11311733 42.1391156,6.11415076 42.1525152,6.11415076 C42.1649148,6.11415076 42.1745146,6.11311733 42.1869142,6.11311733 L43.3210812,6.11311733 L43.3210812,13.7429653 C43.3210812,14.4591356 43.399679,15.0136766 43.5650741,15.4386249 C43.7318693,15.8794881 43.9702624,16.2217617 44.2742535,16.4532511 C44.569645,16.6764729 44.9238347,16.8228073 45.324623,16.8841933 C45.6910124,16.9364851 46.0880008,16.9664547 46.5041887,16.9664547 L46.7291822,16.9664547 C46.7395819,16.9664547 46.7471817,16.9674881 46.7567814,16.9674881 C46.7653812,16.9674881 46.7743809,16.9664547 46.7839806,16.9664547 C47.3071654,16.9503331 47.7261532,16.5084365 47.7261532,15.9646432 C47.7261532,15.4200231 47.3081654,14.9772997 46.7867805,14.9609714" id="Fill-14" fill="#186A9E"></path>
                    <path d="M19.8180442,9.38898116 C19.823844,9.3598383 19.8324437,9.33234894 19.8390435,9.30279271 C19.8314438,9.33234894 19.821844,9.3598383 19.8152442,9.38898116 L19.8180442,9.38898116 Z" id="Fill-16" fill="#040201"></path>
                    <path d="M19.8390235,9.30277204 C19.8486233,9.26246809 19.858023,9.22257751 19.8704226,9.18206687 L19.8704226,9.16532523 C19.858023,9.21058967 19.8486233,9.2575076 19.8390235,9.30277204" id="Fill-18" fill="#040201"></path>
                    <path d="M29.5102625,7.7710152 C29.1966716,6.99428571 28.7596843,6.31159878 28.2139002,5.74134954 C27.668716,5.17089362 27.0267347,4.71680243 26.3043557,4.39271733 C24.8207988,3.73028571 23.0268509,3.74806079 21.5566936,4.41937994 C20.8093154,4.75979331 20.1449347,5.22917933 19.5873509,5.82051064 C19.0269671,6.41163526 18.5779802,7.11437082 18.2547896,7.90350152 C17.9283991,8.69841945 17.7630039,9.55885714 17.7630039,10.4577386 C17.7630039,11.3562067 17.9335989,12.2166444 18.2681892,13.0094954 C18.6007795,13.7994529 19.0641661,14.4966079 19.6441492,15.0815319 C20.2245323,15.6681094 20.9151123,16.1366687 21.6918897,16.4760486 C22.474067,16.8148085 23.3184424,16.9892523 24.1988169,16.9892523 C24.9087962,16.9892523 25.5775768,16.8821884 26.1879591,16.6724012 C26.7913415,16.4671611 27.3637249,16.1775927 27.8947095,15.8115502 C28.0171059,15.7224681 28.1397024,15.6213982 28.2630988,15.5099939 C28.2772984,15.496766 28.287898,15.4839514 28.3010977,15.4732036 C28.3030976,15.4692766 28.3050975,15.4682432 28.3078975,15.4653495 C28.4798925,15.2855319 28.5842894,15.0401945 28.5842894,14.7663343 C28.5842894,14.2196474 28.1567019,13.776924 27.6277172,13.776924 C27.430523,13.776924 27.2489282,13.8399635 27.0953327,13.9439271 L27.015335,14.0059331 L26.8499398,14.1355258 C26.4711508,14.4222006 26.051763,14.6408754 25.5985762,14.787003 C24.608205,15.1096413 23.4772378,15.0815319 22.5264655,14.6929605 C22.0108804,14.4796596 21.5480939,14.1871976 21.1525054,13.821155 C20.7583168,13.4582128 20.4333263,13.018383 20.1845335,12.5179939 C19.9881392,12.120535 19.8533431,11.6945532 19.7847451,11.247696 L19.787545,11.247696 C19.7389465,10.968462 19.7099473,10.6807538 19.7099473,10.3882918 C19.7099473,10.0456049 19.7493462,9.71201216 19.8179442,9.38896049 L19.8151442,9.38896049 C19.821944,9.35981763 19.8313438,9.33232827 19.8389435,9.30277204 C19.8485433,9.2575076 19.858143,9.21058967 19.8705426,9.16532523 L19.8705426,9.18206687 C19.96154,8.85302128 20.0859364,8.53534347 20.2437318,8.23688754 C20.4981244,7.76708815 20.8141152,7.3518541 21.1891043,7.00317325 C21.5622935,6.65800608 21.991681,6.38311246 22.4640673,6.188 C23.40104,5.80087538 24.5114078,5.79405471 25.4483806,6.19254711 C25.9173669,6.392 26.3399547,6.6687538 26.705544,7.01392097 C27.0697334,7.35784802 27.3713247,7.7710152 27.6063179,8.23895441 C27.7845127,8.60479027 27.9157089,8.98943465 27.9913067,9.38896049 L21.2149036,9.38896049 C20.7365175,9.41458967 20.3547286,9.81990274 20.3547286,10.3202918 C20.3547286,10.8134468 20.7297177,11.2156596 21.2025039,11.247696 L28.873081,11.247696 C28.9258795,11.247696 28.9754781,11.2458359 29.0208768,11.2412888 L29.0332764,11.2412888 C29.1380733,11.2412888 29.2356705,11.2255805 29.3296678,11.1931307 C29.7094567,11.0645714 29.9840488,10.7005957 29.9906486,10.2675866 L29.9906486,10.2529119 L29.9906486,10.2283161 C29.9820488,9.35506383 29.8224535,8.52645593 29.5102625,7.7710152" id="Fill-20" fill="#186A9E"></path>
                    <g id="Group-24" transform="translate(0.000000, 3.970704)">
                        <mask id="mask-4" fill="white">
                            <use xlink:href="#path-3"></use>
                        </mask>
                        <g id="Clip-23"></g>
                        <path d="M10.5114146,1.4327538 C10.5276141,1.39389666 10.5428137,1.35731307 10.5590132,1.32093617 C10.5952121,1.21697264 10.6172115,1.10515502 10.6172115,0.9883769 C10.6172115,0.647550152 10.4508163,0.346613982 10.1982237,0.169896657 C10.0452281,0.0630395137 9.86083348,0 9.66363921,0 C9.31904922,0 9.02165786,0.187671733 8.85246278,0.471246201 C8.80906404,0.527878419 8.76706526,0.598772036 8.73186628,0.684133739 C8.73186628,0.684133739 5.89434873,7.68151976 5.44356183,8.74719757 L5.29816605,9.08802432 C5.25716724,8.98716109 5.21616844,8.88753799 5.17556962,8.78667477 L1.85006624,0.635768997 C1.84626635,0.627914894 1.84146649,0.622954407 1.83866657,0.617580547 C1.69907063,0.257118541 1.35488063,0 0.955892225,0 C0.792096984,0 0.640901378,0.0452644377 0.505105323,0.121531915 C0.205914017,0.286674772 -7.9997675e-05,0.609726444 -7.9997675e-05,0.9883769 C-7.9997675e-05,1.10908207 0.022919334,1.22296657 0.0625181834,1.32982371 L0.0977171607,1.41249848 L4.64098515,12.4688024 C4.68958374,12.5890942 4.75778176,12.6928511 4.84677917,12.7850334 C5.05737305,12.9958541 5.49536032,13.0450456 5.75375282,12.7742857 C5.82755067,12.6928511 5.88474901,12.6041824 5.92574782,12.5082796 C5.92574782,12.5082796 10.3728186,1.75394529 10.5114146,1.4327538" id="Fill-22" fill="#04A6E1" mask="url(#mask-4)"></path>
                    </g>
                    <path d="M16.828491,4.15438663 C16.6716956,4.03864195 16.4829011,3.97064195 16.277107,3.97064195 C15.9119177,3.97064195 15.5999267,4.18497629 15.4363315,4.49769362 C15.4011325,4.54605836 15.3715334,4.59773009 15.3473341,4.65580912 L11.9050341,13.0646602 L11.5684439,12.2343988 L10.9888607,10.781803 C10.9842608,10.7739489 10.979461,10.7700219 10.978461,10.7642347 C10.9608615,10.723724 10.9360622,10.6906541 10.9140629,10.6542772 C10.7516676,10.3537544 10.4508763,10.1450006 10.0928867,10.1450006 C9.93049145,10.1450006 9.77849587,10.1908851 9.64349979,10.2667392 C9.34330852,10.4316754 9.13751449,10.7561739 9.13751449,11.1329641 C9.13751449,11.2518091 9.1613138,11.3580462 9.19791274,11.4630432 C9.19891271,11.4669702 9.19891271,11.4719307 9.19991268,11.4758578 L9.23611163,11.5570857 L10.4212772,14.4221799 L10.4242771,14.4211465 L10.4914752,14.5856693 L10.4904752,14.5856693 L10.5046748,14.620186 L11.2238539,16.3396146 L11.3082514,16.538034 C11.4126484,16.7695234 11.6418417,16.9276389 11.9030341,16.9294991 C11.9178337,16.9294991 11.9302333,16.931566 11.940633,16.931566 C12.1050283,16.931566 12.2476241,16.8734869 12.3586209,16.7587757 C12.4354187,16.6794079 12.4964169,16.5936328 12.5540152,16.4807818 C13.3461922,14.5807088 16.3739042,7.21252644 17.1324822,5.39058116 C17.1468818,5.35957812 17.1606814,5.3281617 17.172081,5.29550517 C17.2110799,5.19154164 17.2350792,5.07786383 17.2350792,4.95922553 C17.2350792,4.62418602 17.0734839,4.33275745 16.828491,4.15438663" id="Fill-25" fill="#04A6E1"></path>
                </g>
            </g>
        </g>
    </g>
</svg>